<svg xmlns="http://www.w3.org/2000/svg" width="130" height="130" viewBox="0 0 130 130"><g id="Layer_2" data-name="Layer 2"><polygon points="64.5 3.4 118 34.3 118 96.1 64.5 127 11 96.1 11 34.3 64.5 3.4" fill="#fff"/><path d="M33.5,88a1,1,0,1,1,0-2h5V79.6h-5a1,1,0,0,1-1.1-1v-20a1,1,0,0,1,1.1-1h6.7c.5-14.4,11.2-22.3,24.3-22.3s23.9,7.9,24.4,22.3h6.7a.9.9,0,0,1,1,1v20a.9.9,0,0,1-1,1H90.5V86h5.1a1,1,0,0,1,0,2Zm1-28.4v18H94.6v-18Zm6.1,20V86h6.5V79.6Zm1.6-22H86.8c-.5-13.1-10.4-20.3-22.3-20.3S42.7,44.5,42.2,57.6Zm6.9,22V86H59.2V79.6Zm12.2,0V86h6.5V79.6Zm27.5-6.9H64a1,1,0,1,1,0-2H88.8a1,1,0,0,1,0,2Zm-19,6.9V86H79.9V79.6Zm12.2,0V86h6.5V79.6Z" fill="none"/></g></svg>