<svg id="Layer_1" data-name="Layer 1" xmlns="http://www.w3.org/2000/svg" width="130" height="130" viewBox="0 0 130 130"><polygon points="53.5 75.8 46.6 75.8 37.5 86.5 39 88.6 56.5 79.4 53.5 75.8" fill="#fff"/><rect x="40.8" y="68.3" width="56.6" height="5.38" fill="#fff"/><path d="M68.6,2,14,33.5v63L68.6,128l54.5-31.5v-63Zm33.1,85.1-2.4,3.5a1.2,1.2,0,0,1-1.4.3L93,88.3H44l-4.9,2.6a1.2,1.2,0,0,1-1.4-.3l-2.4-3.5a1,1,0,0,1,.1-1.2L44,75.8H39.8a1,1,0,0,1-1-1.1V67.3a1,1,0,0,1,1-1.1h6a28.8,28.8,0,0,1-1.1-7.8,24.5,24.5,0,0,1,48.9,0,25.4,25.4,0,0,1-1.1,7.8h6a1,1,0,0,1,1,1.1v7.4a1,1,0,0,1-1,1.1H93.2l8.5,10.1A1.1,1.1,0,0,1,101.7,87.1Z" fill="#fff"/><polygon points="48.1 86.2 62.1 86.2 57.9 81 48.1 86.2" fill="#fff"/><path d="M90.3,66.2a25,25,0,0,0,1.2-7.8,22.4,22.4,0,1,0-44.8,0A18.3,18.3,0,0,0,48,66.2Z" fill="#fff"/><polygon points="56.1 75.8 64.8 86.2 72.3 86.2 81 75.8 56.1 75.8" fill="#fff"/><polygon points="83.7 75.8 80.6 79.4 98.2 88.6 99.6 86.6 90.5 75.8 83.7 75.8" fill="#fff"/><polygon points="75 86.2 89 86.2 79.2 81 75 86.2" fill="#fff"/><path d="M69.2,36A22.4,22.4,0,0,1,91.5,58.4a25,25,0,0,1-1.2,7.8H48a18.3,18.3,0,0,1-1.3-7.8A22.6,22.6,0,0,1,69.2,36ZM40.8,73.7V68.3H97.4v5.4ZM39,88.6l-1.5-2.1,9.1-10.7h6.9l3,3.6Zm9.1-2.4L57.9,81l4.2,5.2Zm16.7,0L56.1,75.8H81L72.3,86.2Zm10.2,0L79.2,81,89,86.2Zm23.1,2.4L80.6,79.4l3.1-3.6h6.8l9.1,10.8Z" fill="#fff"/></svg>