<svg xmlns="http://www.w3.org/2000/svg" width="130" height="130" viewBox="0 0 130 130"><g id="superdomes"><polygon points="63 2.4 117 33.6 117 95.9 63 127 9.1 95.9 9.1 33.6 63 2.4" fill="#fff"/><path d="M33.5,87.7a1,1,0,0,1-1.1-1V74.3H18.9a1,1,0,1,1,0-2h7.7V65.6a.9.9,0,0,1,1-1h4A32.5,32.5,0,0,1,62.9,39.7c.1-.1.2-.1.4,0A32.2,32.2,0,0,1,94.4,64.6h4a1,1,0,0,1,1.1,1v6.7h7.6a1,1,0,1,1,0,2H93.6V86.7a.9.9,0,0,1-1,1ZM28.7,66.6v5.7H97.4V66.6ZM61,41.9A30.2,30.2,0,0,0,33.8,64.6H44.7ZM34.5,74.3V85.7H62V74.3ZM62,43.9,47.3,64.6H62Zm2.1-2.1V64.6H92.3A30.4,30.4,0,0,0,64.1,41.8Zm0,32.5V85.7h4.6V74.3Zm6.6,0V85.7H91.6V74.3Z" fill="none"/></g></svg>