<svg xmlns="http://www.w3.org/2000/svg" width="130" height="130" viewBox="0 0 130 130"><g id="Layer_2"><path d="M64.5 3.4L118 34.3v61.8L64.5 127 11 96.1V34.3L64.5 3.4z"/><path fill="#fff" stroke="#fff" stroke-miterlimit="10" d="M33.5 88a1 1 0 1 1 0-2h5v-6.4h-5a1 1 0 0 1-1.1-1v-20a1 1 0 0 1 1.1-1h6.7c.5-14.4 11.2-22.3 24.3-22.3s23.9 7.9 24.4 22.3h6.7a.9.9 0 0 1 1 1v20a.9.9 0 0 1-1 1h-5.1V86h5.1a1 1 0 0 1 0 2zm1-28.4v18h60.1v-18zm6.1 20V86h6.5v-6.4zm1.6-22h44.6c-.5-13.1-10.4-20.3-22.3-20.3s-21.8 7.2-22.3 20.3zm6.9 22V86h10.1v-6.4zm12.2 0V86h6.5v-6.4zm27.5-6.9H64a1 1 0 1 1 0-2h24.8a1 1 0 0 1 0 2zm-19 6.9V86h10.1v-6.4zm12.2 0V86h6.5v-6.4z"/></g></svg>