<svg xmlns="http://www.w3.org/2000/svg" width="130" height="130" viewBox="0 0 130 130"><g id="superdomes"><path d="M63 2.4l54 31.2v62.3L63 127 9.1 95.9V33.6L63 2.4z"/><path fill="#fff" stroke="#fff" stroke-miterlimit="10" d="M33.5 87.7a1 1 0 0 1-1.1-1V74.3H18.9a1 1 0 1 1 0-2h7.7v-6.7a.9.9 0 0 1 1-1h4a32.5 32.5 0 0 1 31.3-24.9c.1-.1.2-.1.4 0a32.2 32.2 0 0 1 31.1 24.9h4a1 1 0 0 1 1.1 1v6.7h7.6a1 1 0 1 1 0 2H93.6v12.4a.9.9 0 0 1-1 1zm-4.8-21.1v5.7h68.7v-5.7zM61 41.9a30.2 30.2 0 0 0-27.2 22.7h10.9zM34.5 74.3v11.4H62V74.3zM62 43.9L47.3 64.6H62zm2.1-2.1v22.8h28.2a30.4 30.4 0 0 0-28.2-22.8zm0 32.5v11.4h4.6V74.3zm6.6 0v11.4h20.9V74.3z"/></g></svg>