<svg xmlns="http://www.w3.org/2000/svg"><symbol id="space-bubble" viewBox="0 0 130 130"><path fill="#fff" d="M53.5 75.8h-6.9l-9.1 10.7 1.5 2.1 17.5-9.2-3-3.6zm-12.7-7.5h56.6v5.38H40.8z"/><path d="M68.6 2L14 33.5v63L68.6 128l54.5-31.5v-63zm33.1 85.1l-2.4 3.5a1.2 1.2 0 0 1-1.4.3L93 88.3H44l-4.9 2.6a1.2 1.2 0 0 1-1.4-.3l-2.4-3.5a1 1 0 0 1 .1-1.2L44 75.8h-4.2a1 1 0 0 1-1-1.1v-7.4a1 1 0 0 1 1-1.1h6a28.8 28.8 0 0 1-1.1-7.8 24.5 24.5 0 0 1 48.9 0 25.4 25.4 0 0 1-1.1 7.8h6a1 1 0 0 1 1 1.1v7.4a1 1 0 0 1-1 1.1h-5.3l8.5 10.1a1.1 1.1 0 0 1 0 1.2z"/><path fill="#fff" d="M48.1 86.2h14L57.9 81l-9.8 5.2zm42.2-20a25 25 0 0 0 1.2-7.8 22.4 22.4 0 1 0-44.8 0 18.3 18.3 0 0 0 1.3 7.8zm-34.2 9.6l8.7 10.4h7.5L81 75.8H56.1zm27.6 0l-3.1 3.6 17.6 9.2 1.4-2-9.1-10.8h-6.8zM75 86.2h14L79.2 81 75 86.2z"/><path stroke="#fff" stroke-miterlimit="10" d="M69.2 36a22.4 22.4 0 0 1 22.3 22.4 25 25 0 0 1-1.2 7.8H48a18.3 18.3 0 0 1-1.3-7.8A22.6 22.6 0 0 1 69.2 36zM40.8 73.7v-5.4h56.6v5.4zM39 88.6l-1.5-2.1 9.1-10.7h6.9l3 3.6zm9.1-2.4l9.8-5.2 4.2 5.2zm16.7 0l-8.7-10.4H81l-8.7 10.4zm10.2 0l4.2-5.2 9.8 5.2zm23.1 2.4l-17.5-9.2 3.1-3.6h6.8l9.1 10.8z"/></symbol><symbol id="mecha-stilts" viewBox="0 0 130 130"><g id="Layer_2"><path d="M64.5 3.4L118 34.3v61.8L64.5 127 11 96.1V34.3L64.5 3.4z"/><path fill="#fff" stroke="#fff" stroke-miterlimit="10" d="M33.5 88a1 1 0 1 1 0-2h5v-6.4h-5a1 1 0 0 1-1.1-1v-20a1 1 0 0 1 1.1-1h6.7c.5-14.4 11.2-22.3 24.3-22.3s23.9 7.9 24.4 22.3h6.7a.9.9 0 0 1 1 1v20a.9.9 0 0 1-1 1h-5.1V86h5.1a1 1 0 0 1 0 2zm1-28.4v18h60.1v-18zm6.1 20V86h6.5v-6.4zm1.6-22h44.6c-.5-13.1-10.4-20.3-22.3-20.3s-21.8 7.2-22.3 20.3zm6.9 22V86h10.1v-6.4zm12.2 0V86h6.5v-6.4zm27.5-6.9H64a1 1 0 1 1 0-2h24.8a1 1 0 0 1 0 2zm-19 6.9V86h10.1v-6.4zm12.2 0V86h6.5v-6.4z"/></g></symbol><symbol id="space-bubble" viewBox="0 0 130 130"><path fill="#fff" d="M53.5 75.8h-6.9l-9.1 10.7 1.5 2.1 17.5-9.2-3-3.6zm-12.7-7.5h56.6v5.38H40.8z"/><path d="M68.6 2L14 33.5v63L68.6 128l54.5-31.5v-63zm33.1 85.1l-2.4 3.5a1.2 1.2 0 0 1-1.4.3L93 88.3H44l-4.9 2.6a1.2 1.2 0 0 1-1.4-.3l-2.4-3.5a1 1 0 0 1 .1-1.2L44 75.8h-4.2a1 1 0 0 1-1-1.1v-7.4a1 1 0 0 1 1-1.1h6a28.8 28.8 0 0 1-1.1-7.8 24.5 24.5 0 0 1 48.9 0 25.4 25.4 0 0 1-1.1 7.8h6a1 1 0 0 1 1 1.1v7.4a1 1 0 0 1-1 1.1h-5.3l8.5 10.1a1.1 1.1 0 0 1 0 1.2z"/><path fill="#fff" d="M48.1 86.2h14L57.9 81l-9.8 5.2zm42.2-20a25 25 0 0 0 1.2-7.8 22.4 22.4 0 1 0-44.8 0 18.3 18.3 0 0 0 1.3 7.8zm-34.2 9.6l8.7 10.4h7.5L81 75.8H56.1zm27.6 0l-3.1 3.6 17.6 9.2 1.4-2-9.1-10.8h-6.8zM75 86.2h14L79.2 81 75 86.2z"/><path stroke="#fff" stroke-miterlimit="10" d="M69.2 36a22.4 22.4 0 0 1 22.3 22.4 25 25 0 0 1-1.2 7.8H48a18.3 18.3 0 0 1-1.3-7.8A22.6 22.6 0 0 1 69.2 36zM40.8 73.7v-5.4h56.6v5.4zM39 88.6l-1.5-2.1 9.1-10.7h6.9l3 3.6zm9.1-2.4l9.8-5.2 4.2 5.2zm16.7 0l-8.7-10.4H81l-8.7 10.4zm10.2 0l4.2-5.2 9.8 5.2zm23.1 2.4l-17.5-9.2 3.1-3.6h6.8l9.1 10.8z"/></symbol><symbol id="super-domes" viewBox="0 0 130 130"><g id="superdomes"><path d="M63 2.4l54 31.2v62.3L63 127 9.1 95.9V33.6L63 2.4z"/><path fill="#fff" stroke="#fff" stroke-miterlimit="10" d="M33.5 87.7a1 1 0 0 1-1.1-1V74.3H18.9a1 1 0 1 1 0-2h7.7v-6.7a.9.9 0 0 1 1-1h4a32.5 32.5 0 0 1 31.3-24.9c.1-.1.2-.1.4 0a32.2 32.2 0 0 1 31.1 24.9h4a1 1 0 0 1 1.1 1v6.7h7.6a1 1 0 1 1 0 2H93.6v12.4a.9.9 0 0 1-1 1zm-4.8-21.1v5.7h68.7v-5.7zM61 41.9a30.2 30.2 0 0 0-27.2 22.7h10.9zM34.5 74.3v11.4H62V74.3zM62 43.9L47.3 64.6H62zm2.1-2.1v22.8h28.2a30.4 30.4 0 0 0-28.2-22.8zm0 32.5v11.4h4.6V74.3zm6.6 0v11.4h20.9V74.3z"/></g></symbol></svg>